<?xml version="1.0" encoding="utf-8"?>
<!-- Generator: Adobe Illustrator 22.1.0, SVG Export Plug-In . SVG Version: 6.00 Build 0)  -->
<svg version="1.1" id="Layer_1" xmlns="http://www.w3.org/2000/svg" xmlns:xlink="http://www.w3.org/1999/xlink" x="0px" y="0px"
	 viewBox="0 0 1280 1024" style="enable-background:new 0 0 1280 1024;" xml:space="preserve">
<style type="text/css">
	.st0{fill:none;}
	.st1{fill:#0000FF;}
	.st2{font-family:'MondrongoTrash';}
	.st3{font-size:89px;}
	.st4{fill:#0000FF;stroke:#0000FF;stroke-miterlimit:10;}
	.st5{fill:#0000FF;stroke:#FF0000;stroke-miterlimit:10;}
	.st6{fill:#FF0000;}
	.st7{fill:#20FFFF;}
	.st8{fill:#FF0000;stroke:#FF0000;stroke-width:0.75;stroke-miterlimit:10;}
	.st9{fill:#0000FF;stroke:#0000FF;stroke-width:0.75;stroke-miterlimit:10;}
	.st10{fill:#FF0000;stroke:#0000FF;stroke-width:0.75;stroke-miterlimit:10;}
</style>
<rect x="62.2" y="114.1" class="st0" width="608.8" height="123.9"/>
<text transform="matrix(1 0 0 1 62.1582 177.4878)" class="st1 st2 st3">Inside Out</text>
<g>
	<rect x="141.2" y="715.1" class="st0" width="608.8" height="123.9"/>
	<text transform="matrix(1 0 0 1 141.1582 778.4873)"><tspan x="0" y="0" class="st4 st2 st3">In</tspan><tspan x="100.3" y="0" class="st5 st2 st3">side</tspan><tspan x="288.8" y="0" class="st4 st2 st3"> Out</tspan></text>
</g>
<rect x="671.2" y="900.1" class="st0" width="608.8" height="123.9"/>
<text transform="matrix(1 0 0 1 671.1582 963.4873)" class="st6 st2 st3">Inside Out</text>
<g>
	<g>
		<g>
			<g>
				<g>
					<path class="st7" d="M1227.1,1045.6c-2.7-1.6-3.4,1.1,2,7.2l6.7,2L1227.1,1045.6z"/>
					<path class="st7" d="M1227.9,1071c-9.3-3-20.6-5.4-16.9,0.8c10.1,1.3,11.3,3.8,22.5,4.8c4,2,7.2,4.2,8.7,5.8l13.2,13.7
						l-8.6-19.1c-0.9-2-0.9-3.1,0-3c-2.6-1.6-7.3-10.4-11.9-12.2c2.3,5.5,5.8,11.1,10.3,16.6l4.8,6l-6.7-3.7
						c-5.2-2.9-11-5.4-17.1-7.5C1223.8,1070.8,1226.9,1071.3,1227.9,1071z"/>
					<path class="st7" d="M837.7,763.9l-5.1,0.2C834,764.1,835.8,764.1,837.7,763.9z"/>
					<path class="st7" d="M1149,690.6c3.8,0.2,5.4,0,5.6-0.4C1151.1,690.2,1148.2,690.2,1149,690.6z"/>
					<path class="st7" d="M1064.8,681c1.8,0.2,3.3,0.3,5,0.5C1067.9,681.1,1066,680.8,1064.8,681z"/>
					<path class="st7" d="M837.7,763.9l13.2-0.4C851.7,762.1,844.1,763.4,837.7,763.9z"/>
					<path class="st7" d="M1127.3,1026.3c2.5,1.2,4.7,1.9,6.8,2.5c-2.1-0.9-4.1-1.9-6.1-2.8
						C1127.7,1026.1,1127.6,1026.2,1127.3,1026.3z"/>
					<path class="st7" d="M726.3,796.3l2,1c1,0,2-0.1,2.9-0.4C729.7,796.7,728.1,796.5,726.3,796.3z"/>
					<path class="st7" d="M869.7,867.8c-3.3-1.9-6,0.6-8,1.2c2.5-0.3,5.3,0.4,8.4,1.7C870.5,870.1,870.4,869.2,869.7,867.8z"/>
					<path class="st7" d="M1101,996.4l4.3,1.8C1104.2,997.8,1102.3,996.9,1101,996.4z"/>
					<path class="st7" d="M741,779.9c0.3,0.5,1,0.8,1.7,1C742.6,780.5,742,780.2,741,779.9z"/>
					<path class="st7" d="M428.3,158.4c0.4-0.2,0.5-0.4,0.8-0.6C428.4,158.1,428.1,158.3,428.3,158.4z"/>
					<path class="st7" d="M256.9,140.3l2.7-0.3c0.3-0.6,0.5-1.3,0.5-1.9L256.9,140.3z"/>
					<path class="st7" d="M910,675.7c0.3,0,0.4,0,0.7,0C914.7,675.2,912.4,675.4,910,675.7z"/>
					<path class="st7" d="M855.1,496.6c5.6-5.7,2.9,0.2,0.7,5.2c-2.2,5-3.9,9.3,4.2,0.4c-1.2,0.5,0.8-4.7,1.4-8.1
						C862,490.6,861.4,489,855.1,496.6z"/>
					<path class="st7" d="M1123.7,1023.8c-2-1-4-2.1-6-3.2C1120.4,1022.2,1122.2,1023.2,1123.7,1023.8z"/>
					<path class="st7" d="M860,502.2L860,502.2l1.7-1.9C861,501.1,860.6,501.6,860,502.2z"/>
					<path class="st7" d="M596.7,737.6c-0.9,0-2.3,0.5-3.8,1.1C593.2,738.9,594.1,738.7,596.7,737.6z"/>
					<path class="st7" d="M819.5,685.6l-6.6-0.2C815.5,685.6,817.6,685.6,819.5,685.6z"/>
					<path class="st7" d="M700.9,647.6c2.9-2.1,4.2-2.5,7.6-6c-0.5,0.2-0.9,0.4-1.4,0.6C706.1,643.8,704.4,645.5,700.9,647.6z"/>
					<path class="st7" d="M809.4,554.1c-0.7,0.3-1.6,0.8-2.4,1.3c-1,1-2.2,2.1-3.3,3.2L809.4,554.1z"/>
					<path class="st7" d="M584.9,177.1c-3.3-0.1-5.4-0.6-7.2-1.2C580.5,177.6,560.4,183.9,584.9,177.1z"/>
					<path class="st7" d="M1128.1,1024.6c-1.1,0.3-2.4,0.1-4.4-0.8c1.5,0.8,2.9,1.4,4.3,2.1
						C1128.6,1025.7,1128.9,1025.3,1128.1,1024.6z"/>
					<path class="st7" d="M688.4,623.5l17.6-14.2C700.9,613.1,694.6,618.3,688.4,623.5z"/>
					<path class="st7" d="M870.8,188.4c0-0.2,0-0.4-0.1-0.5C870.1,188.4,870.1,188.6,870.8,188.4z"/>
					<path class="st7" d="M756.6,565.3c3.8-1.8,7.5-4.1,11.1-6.6c0.5-0.8,1.2-1.7,1.4-2.4L756.6,565.3z"/>
					<path class="st7" d="M577.7,175.9C577.7,175.9,577.7,175.9,577.7,175.9C577.7,175.9,577.7,175.9,577.7,175.9z"/>
					<path class="st7" d="M435.3,222.3c20.9-5.5,8.7-6.8,12.5-10.5c24.6-7.9,12.4,0.1,21.5,0c15.3-5.3,26.2-12.4,37.8-15.4
						c1.1,0.5,3.4,0.1,1,1.7c15.6-7.8,48.8-13.3,66.9-22.7c1.5,0,2.3,0.2,2.8,0.4c-3.7-1.3-4.7-3.4-4.5-5.1
						c9.3-2.6,16.7-7.4,20.9-5.5c-5.8,1.5-5.9,2.7-8.4,4.3l9.5-3.8c9.9,1.7-13,5-12.2,8c18.8-6.4,40.2-15.7,55.2-18.5
						c4.1,3.1-33.9,10.5-13.4,8.8l-23.1,4.6c19,1.6-13.9,3.3,3.8,5.6c30.2-6.9,32.9-11,63-17.8c6.1-4-3.1-2.6,3-6.6
						c20.6-7.6,29.6-7.4,37.2-6.9c3.8,0.2,7.2,0.5,11.5-0.1c2.2-0.3,4.6-0.9,7.3-1.7c0.2-0.1,0.3-0.1,0.5-0.2l0.1-0.1l0.2-0.1
						c0.1-0.1,0.3-0.2,0.4-0.4c0.4-0.4,0.8-0.7,1.2-1.1c1.2-1.7,3.2-4.3,6.4-6.5c1.6-1.1,3.5-2.1,5.6-2.8c2-0.7,4.3-1.1,5.7-0.8
						c-4.2,2.7-7.9,5.3-10.9,7.7c1.6-0.3,3.4-1.2,5.8-2.4c3.4-1.8,5.5-2.9,7.6-4.1c2.7-1.4,5.4-2.7,7.7-3.6c1.2-0.4,2.3-0.7,3.2-0.9
						c0.2,0,0.4-0.1,0.6-0.1c0.1,0,0.2,0,0.3,0c-0.1,0.1-0.4,0.3-0.7,0.5c-1,0.8-2.1,1.6-3.4,2.5c-1.1,0.4-1.6,0.4-1.8,0.2
						c0,0,0-0.1-0.3,0l-0.6,0.2c-0.4,0.1-0.8,0.3-1.1,0.4c-0.7,0.3-1.3,0.5-2,0.7c-2.3,0.9-3.6,1.3-3.7,1.6
						c-1.2,1.3-1.5,1.6-0.5,1.3c0.1-0.1,0.3-0.1,0.4-0.2c0.1,0,0.2-0.1,0.2-0.1c0.1,0,0.1,0,0.1,0c0.1,0,0.3-0.1,0.5-0.2
						c0.5-0.2,1.2-0.5,2-0.8c1.6-0.7,3.5-1.5,4.6-1.9c1.2-0.3,1.5-0.1,0.2,1.2c-4.4,2.2-8.7,4.3-12.8,6.2c-1,1.2-1.8,2.4-2.9,3.9
						c-1.1,1.5-2.5,3.4-4.4,5.7c-0.5,0.6-1,1.2-1.5,1.8l-0.4,0.5l-1.1,1.1l-2.3,2.3c-3.1,3.1-6.2,6-9.3,9.1c-3.1,3-6.3,6.1-9.5,9
						c-3.2,3-6.5,5.9-9.7,8.9c0.7-2.2,4.4-7.1-2.6-2.7c-16.1,15.1-34.4,30.2-53.1,44.3c-18.7,14.1-37.8,27.3-55.6,39.1l-11,12.5
						c-3.1,2.2-6.6,2.9-3.7-0.1c-14.2,8.7,0.6,2.3-5,8.1c-7.5,5.8-11.3,5.7-7.1,1.3c-9.6,8.7-23.3,20.1-38,31.3l13.5,18.5
						c8.7-7.3,18.2-14.2,27.6-20c9.4-5.8,18.7-10.3,26.6-13.4c-1.6,1.2-3.1,2.5-4.7,3.7c10.7-5,15.8-9.5,21-13.8
						c5.2-4.2,10.3-8.2,21.1-11.3c-1.2,0.8-2.4,1.6-3.6,2.3c23.9-10,49.4-20.6,73.6-30.3c24.2-9.7,47.2-18.4,66.8-23.5
						c5.2-7.6,49.1-17.4,49.6-25.2c14.6-4,20-4.9,26.8-6.5c1.7-0.4,3.5-0.8,5.5-1.4c1-0.3,2.1-0.6,3.3-0.9c0.3-0.1,0.6-0.2,0.9-0.3
						l0.5-0.1c0.1,0,0.2-0.1,0.2-0.1l0.1,0c0.2,0,0.4,0,0.6,0c1.5,0,3-0.1,4.3,0c0.4-0.1,1-0.6,1.9-1.4c0.9-0.8,2.2-2,3.8-3.3
						c1.6-1.3,3.4-2.7,5.4-4.1c2-1.4,4.1-2.7,5.9-3.6l-8.5,7.4c4.5-3.2,10.2-6.9,17-11.1l-1.6,1.3l-0.8,0.7l-0.4,0.3l-0.6,0.5
						c-4.1,3.2-7.9,6.1-11.5,8.7c0.4,0.1,0.6,0.3,0.7,0.7c0.8-0.7,2.4-2,4.4-3.5c2-1.5,4.2-3.2,5.7-4.1c-0.1,0.7-1.7,2.7-3.7,4.8
						c-2,2.1-4.5,4.4-6.8,6.2c-2.3,1.8-4.3,3.2-5.8,4c-1.5,0.8-2.6,1.1-3.3,1.2c-0.1,0.5-0.3,1.2-0.7,2l-0.3,0.6l-0.1,0.3l-0.1,0.2
						l0,0.1l0,0l-0.1,0.1l-3.6,4.9l-14.3,19.7c-0.5-1.8,4.3-8.4,7.7-14c-6.8,11.2-8.3,11.5-9.7,11.6c-1.4,0.1-2.6-0.1-8.8,10.2
						c2.7-2,0.6,2.7,0.9,3.6c-4.6,3.9-11.1,11.1-17.9,19.5c-3.4,4.1-6.8,8.6-10.2,13.1c-3.3,4.4-6.5,8.8-9.3,13l0.3-4.6
						c-2.8,3.6-5.6,7.2-8.4,10.9c-1.4,1.9-2.8,3.7-4.2,5.6c-1.4,1.9-2.8,3.8-4.2,5.8c-2.8,3.9-5.5,7.8-8.4,11.8
						c-2.7,4-5.5,8.1-8.2,12.2c-1.4,2-2.8,4.1-4.2,6.2c-1.4,2.1-2.7,4.2-4.1,6.3c-2.7,4.2-5.5,8.4-8.2,12.6
						c-2.7,4.3-5.4,8.6-8.1,12.9c-1.4,2.1-2.7,4.3-4.1,6.4c-1.3,2.2-2.7,4.4-4,6.5c2.2-3,3.9-4.9,5.2-5.9c1.3-1,2.2-1.1,2.6-0.6
						c0.8,1.1-0.2,5-3.1,10.2l-5.8,2c-2,7.8,7.8-9.9,2,5.2c-4.2,6.3-6.4,8-7.2,7c-0.8-1-0.3-4.7,1.5-8.7l-2.1,4.1l-2,4.2l-4.1,8.4
						c-1.6,0.4,0.1-3.7-0.6-5.5c-0.8,3.9-5.9,10.3-10.5,17.4c-2.4,3.5-4.7,7.2-6.6,10.7c-1.9,3.5-3.1,6.8-3.5,9.6l-1.5,0.3
						c-4.5,8.4-8.4,14.3-12.1,18.5c-1.9,2.1-3.7,3.8-5.6,5.2c-2,1.5-4.1,2.8-6.5,4.1c-4.7,2.5-10.1,4.5-16.3,6.5c-3.1,1-6.5,2-10,3
						c-3.5,1-7.2,2-11.1,3.1c0.2,3.4-12.1,5.8-20.8,10.4c-11.5,1.8-23.7,2.7-36,2.5c-6.2-0.2-12.3-0.6-18.5-1.5
						c-6.1-0.9-12.2-2.1-18.2-3.9c-1.1-0.2-2-0.4-2.9-0.6c-0.9-0.2-1.6-0.4-2.3-0.5c-1.4-0.3-2.3-0.5-3.1-0.6
						c-1.5-0.2-1.9,0-2.1,0.3c-0.4,0.7,0.4,1.9-3.8,1.1c0-0.2,0-0.3-0.4-0.6l-6.8,18.6c0.6,0.9,2.5,1.9,4.7,2.9
						c1.1,0.5,2.3,1.1,3.5,1.7c1.2,0.6,2.3,1.1,3.4,1.6c4.1,2.2,6.3,3.6-0.1,2.2c14.7,5.5,23.8,10.7,33.9,16.6
						c10,6,20.9,13.1,38.9,25.7c-3-3.9-6.8-7.6-4-6.8c6.6,4.5,13.5,12.2,11.7,12.7l-1.9-1.1c10.5,6.8,21.1,15.1,32.3,23.6
						c5.6,4.2,11.4,8.5,17.5,12.6c1.5,1,3.1,2,4.6,3c1.5,1,3.1,2,4.7,2.9c1.6,0.9,3.2,1.9,4.8,2.8c1.6,0.9,3.3,1.8,4.9,2.7
						c6.6,3.4,13.5,6.5,20.5,8.8c3.5,1.3,7.1,2.1,10.6,3c1.8,0.4,3.6,0.7,5.3,1c1.8,0.3,3.5,0.6,5.3,0.8c1.8,0.2,3.5,0.3,5.2,0.5
						c0.9,0.1,1.7,0.1,2.6,0.1c0.9,0,1.7,0,2.6,0c1.7,0,3.4,0.1,5.1-0.1c1.7-0.1,3.3-0.3,4.9-0.4c0.8-0.1,1.6-0.2,2.4-0.3
						c0.8-0.1,1.6-0.3,2.3-0.4c1.5-0.3,3.1-0.6,4.5-0.9c2.9-0.7,5.7-1.6,8.3-2.5l-2.4,0.8c7.4-2.1,14.6-4.7,21.3-7.9l2.5-1.2
						c0.8-0.4,1.7-0.9,2.5-1.3c1.6-0.9,3.3-1.7,4.9-2.6c3.2-1.9,6.4-3.7,9.4-5.8c4.5-2.3,6-3.1,6.2-2.9c0.2,0.2-1.1,1.4-2.5,2.6
						c-2.9,2.4-6.3,5.4,0.8,2.5c9.9-7.1,18-13.9,25.4-20.4c1.8-1.6,3.6-3.2,5.4-4.8c1.7-1.6,3.4-3.2,5.1-4.8
						c3.3-3.2,6.4-6.2,9.5-9.4c12-12.4,22.4-25,31.5-41.3c5.9-4.6,12.4-12.4,18.8-21.7c6.5-9.4,13.1-20.2,19.9-31.2
						c13.6-22.1,28-45.2,41.2-59l-3,0.6c3.8-9.2,7.7-8.9,12.3-14.5c-1.9-0.1-7.7,7.5-5.1,1.9c35.3-53.6,79.2-105,124.3-153.8
						l-28.3-2c1.3,2.4,2,4.6,2.3,7.1c0.2,1.2,0.2,2.5,0.1,3.9c-0.1,1.4-0.2,2.8-0.5,4.3c-0.6,3-1.6,6.2-3,9.5
						c-1.4,3.3-3.2,6.7-5.3,10c-1.7,2.8-3.1,5.1-4.2,7.2c-1.1,2.1-1.9,3.9-2.5,5.5c-1.3,3.2-1.7,5.8-2.4,8.4c-0.8,2.6-1.8,5.4-4.6,9
						c-2.9,3.7-7.5,8.4-15,14.7l4.6-10.8c-4.8,6.2-9.8,12.2-14.9,18.3l-3.8,4.5l-3.9,4.4c-2.7,2.9-5.3,5.9-8,8.8
						c-5.4,5.9-10.7,11.7-16.2,17.5c-5.5,5.7-11.1,11.4-16.6,17.1c-2.8,2.8-5.5,5.7-8.3,8.5c-2.8,2.8-5.6,5.6-8.4,8.4
						c-5.6,5.6-11.1,11.2-16.6,16.9c-5.5,5.7-11,11.2-16.3,16.8c-5.4,5.6-10.6,11.3-15.7,17c2-3.2,1.2-4.1,5.5-8.3
						c-5.6,3.5-14.3,11.8-21.3,19.4c-7,7.6-12.5,14.6-11.8,15.5c-7.1,6.3-3.1,0-8.2,3.1c-10.6,7.6-21.2,25-28.3,27.5
						c-1.2,0.5,2.1-3.2,3.6-4.9c-5.3,6.7-29.3,26.4-21.1,23.3c-9,7.2-17,14.7-24.5,22c-7.5,7.2-14.7,13.9-22.3,19.2
						c-3.3,5.3-10.9,11.5-17.8,17.1c-6.9,5.6-12.8,10.6-12.5,13.8c-1.2-2.6-9.5,3.2-18.8,10.9c-9.3,7.7-19.5,17.5-24.3,23.2
						c1.3-2.2-1.3-0.5-4,1.1c-2.7,1.6-5.3,3-3.9,0.3c-12.7,10.6-23.8,21.1-19.8,21.4c-13.9,7.2-25,17.8-35,27.3
						c-10,9.4-18.9,17.5-28.3,19.6c-12.1,10.8-24.1,21.2-34.5,30.3l18.9,19.3c3.8-5.3,8.6-9.7,14.3-13.3c5.7-3.6,12.1-6.3,18.8-8.5
						c13.5-4.3,28-6.1,42.7-7.5c-0.3,1.4-3.5,2.3-8,3c-2.2,0.4-4.8,0.7-7.5,1.1c-2.7,0.4-5.5,0.7-8.3,1.2c-2.8,0.4-5.4,0.9-7.9,1.4
						c-2.5,0.5-4.7,1.2-6.5,1.8c-3.6,1.4-5.6,2.7-4.8,3.9c8.7-3,17.2-5,25.5-6.7c8.3-1.7,16.3-2.9,24.6-4c16.5-2.3,33-4.1,53.9-4.7
						c10.9,0.1-6,2.7-9.6,3.8c42-4.7,81.3-4.1,118.6-8.6c-0.1,0.5-4.1,1.2-7.9,1.8c7.4-0.5,17.2,0.1,16.2-2.4l-7.2,1
						c-6-1.5,1.3-3.7,10.2-5.7c8.9-2,19.5-3.8,20.1-4.7c-6.1,3.7,3.1,3.9,11.5,4.2c8.4,0.4,15.8,1.2,6,5.9c4.8-0.6,10.9-1.9,9.7-3.5
						c7.2,0.3,9.5,1.2,2.3,3.3c13.2-1,17.4-2.1,21.3-3c3.9-0.9,7.6-1.6,19.5-1.7c-0.1,1.2-4.9,1.7-7.3,3.2c6-1.2,12.1-2.5,19.2-3.3
						c7.1-0.9,15.2-1.1,25.3-0.7c-1.2,0.7,1.1,1.7-4.9,1.6c4.3-0.1,8.5-0.2,12.6-0.4c4.1-0.2,8-0.5,11.9-0.7
						c7.8-0.5,15.3-1.1,22.9-1.6c7.6-0.6,15.3-0.8,23.6-0.8c4.1,0,8.3,0.1,12.7,0.3c2.2,0.1,4.4,0.2,6.7,0.4c2.3,0.2,4.6,0.4,7,0.6
						c-11.4,4.7,12.9,2.3,14.7,6.9c6.8-0.1,13.7-0.3,20.5-0.3c-2.7-0.9-5.4-1.8-8.1-2.7c8.9,0.5,17.4,0.3,25.6,0.2
						c4.1,0,8.1-0.1,12,0.1c3.9,0.2,7.8,0.6,11.6,1.3c-4.5,0.3-8.9,0.4-13.4,0.8c11.2,0.6,22.3,1.3,33.5,2l-18.8-3.3
						c18.3-0.8-1.5-5.8,22.3-2.5c-4.9-0.1,17.9,2,26.9,5.6c0,0-0.1,0-0.1,0c9-0.6,18.3-0.8,31.3,2c3.2,1.9-3.4,4.6-1.3,5.8
						c2.9-0.8,8.3-0.7,14.7-0.1l0.1-14.1c-13.1,2.3-30.9,4.1-38.1,7.8c3.6-1.4,3.5-3.7,2.2-4.1l-6.9,3.9c-8.4,0.1-9.7-0.2-8.6-2.3
						c-25,2.6,8.6,4.7-21.2,5.9c2.3-0.5,1.1-0.8,5.9-1.9c-29.8,2.4-57.1,9.1-84.6,11c-8.6-3.5,23.7-4.1,14-6.7
						c-39.2,5.7-80.8,15.5-118.9,19.2l7.2-0.4c-4.5,7-28.7,0.4-47.6,5.8c4.7-1.1,5.7-4.3,4.6-3.4c-26.2,2.2-53.1,8.2-92.3,15.1
						l4.7-2.2c-15.5,0.5-40.5,4.2-57.2,5.5c-4.7,2.2-14.2,3.2-8.2,4.8c-13.1-0.7-25.7,0-37.9,1.4c-6.1,0.7-12.2,1.6-18.2,2.6
						c-4,0.7-8.1,1.3-12.1,1.9c-3.9,0.7-7.8,1.3-11.6,2c-7.3,1.3-14.5,2.5-21.6,3.7c-6.9,1.2-13.7,2.2-20.8,3.2
						c-3.6,0.5-7.2,0.9-11,1.3l-2.9,0.3l-1.5,0.1c0,0-0.1,0-0.1,0l0.1,0l0.1,0.1l0.3,0.1l0.5,0.3c1.4,0.8,2.8,1.5,4.2,2.3
						c5.4,3.1,10.3,6.2,15,9.6c-3.4-1.7-8.4-3.7-11.9-5.1c-3.6-1.4-5.7-2-2.8-0.6l52.4,24.1c-0.5-1.8-1.5-2.7-3.2-4
						c-0.9-0.6-1.9-1.3-3.2-2.2c-1.2-0.9-2.6-1.9-3.8-3.1c4,1,9,2.7,14,4.6c5,1.9,9.9,4,14.4,6.2c-4.2-1.6-6.7-2.3-7.8-2.2
						c-1.1,0-0.7,0.8,0.6,2.1c0.7,0.6,1.6,1.4,2.6,2.2c0.5,0.4,1.1,0.8,1.7,1.3c0.3,0.2,0.7,0.5,0.9,0.6c0.2,0.2,0.5,0.4,0.7,0.6
						c2,1.5,4,3.1,5.6,4.2c-0.8-1.3,2-1,1.8-2.1c16,13.5,5.5-3.5,28.9,11.9l-2,0.6c9.6,4,19.1,6.5,28.9,12c2.7,5-10.6-3.6-12.4-1.6
						c14.1,6.9,30.5,8.5,41.8,17.8c-6.4-2.2-15-6.5-21.3-8.8c12.2,10.3,14.2,10.3,24.2,16.1l-1-0.6l23,13.6l-5.6-4
						c10.7,0.7,19.8,5,29.5,9.9c9.7,4.9,20,10.6,33,14.3c-25.3-7.2-5.2,0.7-8.6,3c5.6,4,14.2,9.7,11.1,9.3
						c12.5,3.1,17.5,11.7,35.2,16.1c0.2,1.4,11.8,6.3,8,7.6c14.9,6.7-2.5-3.6-0.6-4.3c12.1,4,24.6,12,38.4,20.4
						c13.8,8.4,28.9,17.4,46.1,23.5c14.3,6.4,23.1,9.4,31.8,12.3c8.6,2.9,16.9,5.7,30.1,11.8c7.7,6.3-9.1-0.1-9.1-0.1
						c13,9,23.6,14.4,37.3,20.3c-3.1-0.5-0.8,1.7,2.5,5c10.6,5.4,9,0.1,22,9.1c-3-0.2-7,0-12.7-1.6c12.8,5.8,26,10.6,39.3,16.7
						c2.4,3.6-9.2-1.5-14.3-2.8c14.8,7,37.9,18.9,43.9,18.5l-8.6-6.1c5.3,2.8,1.3,3.9-2.8,2.3c-13.5-4.6-17.1-10.8-17.2-12.2
						l9.4,4.4c-6-11.2-36.9-19.1-55-29.5l10-0.2l-20.8-6.6c-3.4-3.3-4.8-7.3,4.6-3c-11.9-9.3-12.5-4.8-22.4-13.3c-1-1-0.4-1,0.9-0.5
						l-13.6-5.6c3,0.4-0.5-4.3,7.1,0.6c-21.7-15-39-16.8-45.9-24.8l2.1,0.8c-32.9-15.7-4.8,1.5-30.9-7.5l-12-16.6l-4.9,1.6
						c-3.2-1.9-9.7-5.6-7.8-6.2c-13.5-4.3,1.4,2.5-6.9,0.8c-7.2-5.7-18.4-11.1-27.9-16.1c-9.5-4.9-17.3-9.2-17.8-12.8
						c-7-0.5,14.3,9.9-3.7,2.7c-1-4.1-6.1-6.4-12.5-9c-6.5-2.6-14.4-5.4-21.1-10.5c6-0.6,19.1,8.2,5.7-2c-5.7,0.1-12.7-3.8-19.9-8.5
						c-7.2-4.7-14.6-10-21-12.7c-1.3,1.8-8.2-1.3-17.5-5.9c-9.3-4.6-21-10.9-31.7-15.5c2-0.6-38.1-22-56.9-33l0.9-0.4
						c-2.9,1-9.2-1.1-16.7-4.4c-3.8-1.6-7.8-3.5-11.9-5.4c-1-0.5-2-0.9-3-1.4c-0.9-0.4-1.8-0.8-2.8-1.2c-1.6-0.7-3.1-1.4-4.7-2
						c1.3-0.8,2.6-1.2,4.2-1.3c0.8,0,1.7,0,2.6,0.2c0.3,0,1.3,0.3,2.2,0.6c0.9,0.3,1.9,0.6,2.9,1l-9.5-4.7c-3.1,0-6.7-0.9-13.7-3.8
						c2.7,0.1,5.3,0.2,7.6,0.1c-2.4-1.1-5.3-2.2-8.6-3.5c-3.3-1.3-7.2-2.7-11.2-4.3c-1-0.4-2-0.8-3-1.2c-0.5-0.2-1-0.4-1.5-0.6
						l-0.8-0.3l-0.4-0.2l-0.2-0.1c-0.1,0-0.2-0.1-0.1-0.1c1.4-0.3,3-0.6,4.8-0.8c3.6-0.5,8.2-0.9,13.2-1c-1.3-0.6-3.9-1.2-7-1.8
						c-3.5-0.6-7.9-1.4-10.2-1.8c-6.4-1.2-10.6-2.6,3.5-5.4c4.1,1.2,9.1,3.4,4.2,4.7c0.8-0.2,2-0.7,3.9-1.2c1.8-0.5,4.2-0.9,6.9-0.8
						c-2.2,1.2-3.8,2.4-4.9,3.4c2.8,0,4.2-0.2,5-0.5c0.7-0.3,0.8-0.6,0.8-0.9c0-0.7-0.2-1.5,4.2-1.9c2.4,2.1,7.3,0.8,7.6,2.7
						c-0.8,0.2-2.4,0.2-4.1,0.2c-1.7,0.1-3.6,0.2-4.2,0.8c4-0.3,8.5-0.4,12.1-0.2c1.8,0.1,3.3,0.3,4.5,0.5c0.2,0.1,0.8,0.1,1.2,0.1
						c0.5,0,0.9,0.1,1.3,0.2c0.8,0.1,1.5,0.2,2.1,0.4c-1.1-1.2-0.4-3.2,7.4-4.4c20.2-2.7,7.3,2,19.3,1.7c4.7-2.2,17.8-2.2,17.7-5.7
						c5.9-0.7,7.2,0.8,9.6,1.4c10.3-2.9,48.9-6.6,36.6-8.8l-2.7,0.1c0.5-0.1,1.1-0.2,1.7-0.4c-0.1,0,0,0-0.1,0l0.1,0
						c33.9-7.8,71.6-6.9,105.5-12.7l0.1,1.2c20.2-3.9,45.2-6.5,59.4-10.8c6-0.7,14.5,0.4,12.1,2.1c15.4-2.8,17-4.4,39.7-5.2
						c-15.4,4,5.6,1.1-15.8,3.5c20.3-1.5,25.2-0.2,46.5-6.1c-7,3.9,15.7,1.9,25.2-0.2l-14.4-0.4c10.7-1.8,20.2-2.7,29.9-3.6
						l-4.7,4.6c42-0.3,73.6-17.5,106.1-13.4c10.6-4.1-22.7,0.9-13.3-3.6c11.4-1.1,23.3-0.4,31.9,0.2l89.8,6.6l-89.6-28.5
						c-6.2-2-10.8-3.5-13.2-3.8c-6.5-1.4-11.3-2-15.3-2.1c-4-0.1-7.2,0.2-10.4,0.7c-6.5,0.9-13.1,1.8-26.7-0.4
						c1.7,0.9,3.3,2.4,1.8,3.5c-0.7,0.6-2.2,1.1-4.7,1.4c-2.6,0.3-6.2,0.4-11.4,0.3c-19.1-2.2-23.1-8-10.8-8.1
						c4.6,0.3,6.8,0.9,6.6,1.4c6.3,0,14.5,0.1,7-2.1l-2.6,1.2c-4.7-1.1-13.7-2.2-20.7-3.3c-7-1.1-12-1.9-8.8-2.9
						c-14.7,0.4-6.4,1.9,4.3,3.4c-12.3-1.9-21.9-2.5-31.7-3.1c-2.4-0.1-4.9-0.3-7.4-0.4c-2.5-0.1-5-0.2-7.7-0.4
						c-5.3-0.3-10.9-0.7-17.2-1.3c4,1,7.7,2.8,3.6,2.6c-9.3-0.9-15-1.2-18.7-1.1c-3.7,0.1-5.4,0.4-6.7,0.9
						c-2.6,0.9-3.8,2.1-16.4,2.1c-7.1-1.3-5.8-2.5-5.9-3.3c0-0.4-0.4-0.7-2.4-0.8c-2-0.1-5.5,0-11.9,0.4c-15.5-1.7-3.2-3.8,3-4.9
						c-5.8,0.6-11.4,0.8-16.8,0.7c-5.4-0.1-10.5-0.5-15.3-0.9c-9.6-0.8-18-2.1-24.6-2.3l12.2-1.2c-7.3,0.7-13.3,0.7-19.4,0.7l7,2.8
						c-7.2-0.5-13.3-0.4-13.1-1.6c-7.4,2,5.7,4.7-8.9,7.4c-4.8-0.7-12-0.2-18.5,0c-6.5,0.2-12.2,0.2-13.9-1.6
						c15,0.3,14.2-0.6,12.7-1.8c-1.4-1.1-3.4-2.6,9.3-3c-2.5,0.3-5.2,0.4-8.2,0.4c-3,0-6.3,0-9.9-0.2c-1.1-0.4,1-0.8,3-1.1
						c-14.4-1.3-17.7-0.2-21.1,1.4c-3.4,1.6-6.9,3.5-21.8,4c3.7-2.3-7-3.8-11.9-3.2c12-0.4,5.9,3.4-5.1,5.4
						c-19.1-0.9-20.7,2.1-30.7,2.3l11.4,0.3c-3.8,2.3-13.3,2.4-26.5,3.7c-1.2-1.6,12-1.7,7.2-2.2c-7.3,2.2-15.6,1.7-24.8,1
						c-4.6-0.3-9.3-0.7-14.2-0.8c-4.9,0-9.9,0.2-15,1.1c-9.6-0.9-1.1-3.9-9.6-4.5c-22.9,4-25.1-1.5-49.2,2.2
						c7.1,2.5,8.3,1.7-8.5,5.5l39.6-4.3l-25.3,5.6c12-0.7,25.2-3.3,32.4-3.2c-12,3-10.8,2.3-4.9,4.3c-16.7-3.3-32.4,4.4-51.5,2.6
						l0.2-7.1c-3.6-0.2-7.1-0.2-10.5-0.1c-3.4,0.1-6.8,0.3-10.2,0.6c-6.8,0.6-13.6,1.7-20.7,3.1c-7.1,1.5-14.5,3.3-22.6,5.7
						c-8,2.4-16.7,5.4-26.2,10.2c4.2-1.9,8.4-3.4,12.6-4.6c-2,2.3-7.8,4.8-14.1,8.5c-0.8,0.5-1.6,1-2.4,1.5c-0.8,0.5-1.6,1-2.4,1.6
						c-1.6,1.2-3.2,2.3-4.7,3.5c-1.5,1.3-2.9,2.6-4.2,4c-1.3,1.4-2.4,2.8-3.4,4.2c-0.3-0.9-1.3-0.7-2.9,0.2l-45.3,27.4l59.6-12.9
						c2.3-0.5,6.2-2.6,9.4-3.9c-1.6-1,21.5-16.6,21.3-22.4l14.9-7.9c12.1-8.9,17.8-15.5,23.2-22.2c5.4-6.7,10.7-13.3,22.2-22
						c-5.1,7.5,6.1,0.5-7.7,14.1c3.7-3,7.4-5.8,9.9-8c2.6-2.2,4.1-3.9,3.6-4.5c5.3-2.4,18.6-19.5,26.8-23.4c2.4-3.4,1.9-6.2,10.2-13
						c1.2-0.4,0.7,0.9,0.7,0.9c-0.7-0.9,11.9-12.1,3-8c13.8-6.7,29.3-20.4,44.5-33.7c15-13.6,29.7-26.8,41.3-33.2
						c3.8-3.6,7.8-7.5,11.8-11.4c4.1-3.9,8.2-7.9,12.3-11.8c8.1-7.9,16.2-15.6,23.1-22.1c-0.4,1.3,0.8,0.9-2.1,3.2
						c10.4-8.1,12.2-12.2,14.3-16.5c2.1-4.3,4.6-8.8,16.4-18.2c6.8-3.9,4.3-0.8,1.1,2.6c-3.3,3.4-7.3,7-3.3,4.3
						c4.2,1.4,10.6-5,18.1-13.2c3.8-4.1,7.8-8.6,12-12.7c4.2-4.1,8.5-8,12.9-10.7l-3.2,3.8c6.4-4.5,12.6-11.6,19.5-19.8
						c6.9-8.2,14.3-17.5,23.3-26.3c0,0-0.4,1.4,0.7,0.9c4.7-7.5,12.4-17.4,20.9-27.6c8.6-10.2,17.9-21,25.8-30.2
						c-2.9,7.6-6.4,9.1-1,7.9c7.1-8.2-5.8-1.1,8.4-17.4c6-4,17.6-14.5,21.5-13.8l-13.7,15.2c10.2-4.8,17.8-19.6,25.6-27l0.5,2.3
						c1.3-1.4,2.6-3,3.7-4.4c1.2-1.4,2.2-2.8,3.2-4.1c1.9-2.6,3.5-5,4.9-7.3c2.8-4.5,4.7-8.4,6.5-12.4c1.8-4,3.6-8.2,5.7-13.4
						c1-2.6,2.1-5.6,3.2-9c1.1-3.4,2.2-7.3,3-12c-0.6,1.2-1.4,2.4-2.1,3.5c-0.1-4.9-0.2-8.5-0.3-11.3c0-1.4,0-2.6,0.1-3.7
						c0-1.1,0.1-2.2,0.2-3.3c0.1-2.1,0.1-4.3-0.6-7.1c-0.7-2.7-2.2-6.1-5.4-9.7l-4.9-5.5l-2.4,5c-0.1,0.2-0.3,0.5-0.5,0.9l-7.2,1.1
						c-7.1,9.9-24,35.5-36.9,53c4.9-11.8,19.8-32.7,28.4-46.1c-7.8,9.2-26,31.7-28.1,38.1c1.3-2,2.8-4.4,4.3-6.7
						c1.5-2.3,3.2-4.5,5-6.1c-3.3,6.9-7.6,14.4-12.9,22.5c-5.3,8.2-11.7,16.9-19.1,26.4c-2.3-4.5-12.4,7.5-23.7,22
						c-5.7,7.2-11.6,15.1-17.1,21.8c-5.5,6.7-10.6,12.2-14.6,14.7c-11,18.3-23.3,35.5-36.1,53.3c-6.4,8.9-13,18.1-19.5,27.6
						c-3.3,4.8-6.6,9.7-9.8,14.7c-3.3,5-6.5,10.1-9.7,15.3c7.7-5.4,5.8-2.4,3,2.2c-2.8,4.6-6.6,10.6-2.7,11.4
						c-5.8,9.8-8.4,13.3-9.4,13.9c-7.7,8.6-15.6,17-23.8,24.7c-3.4,2.4-2,0.1-0.1-2.8c1.9-2.9,4.4-6.5,3.4-6.6
						c-1.9,2.4-3.5,4.2-4.8,5.6c-1.3,1.4-2.4,2.5-3.3,3.2c-1.7,1.5-2.7,2-3.6,2.3c-0.8,0.3-1.6,0.3-2.8,0.9
						c-0.6,0.3-1.4,0.8-2.3,1.4c-0.5,0.3-1,0.8-1.6,1.2c-0.6,0.5-1.3,1-2,1.6c2-0.3,1.4,1.9-1.1,5.2c-2.5,3.2-6.8,7.6-12.1,11.4
						c5.4-3.1,10.6-6.6,15.9-10.4c-1.2,1.7-2.5,3.1-3.7,4.5c-1.2,1.4-2.3,2.6-3.4,3.7c-1.1,1.1-2.1,2.1-3.1,3c-1,0.9-2,1.6-3,2.3
						c-1.9,1.4-3.7,2.5-5.4,3.4c-0.8,0.5-1.7,0.9-2.5,1.3c-0.8,0.4-1.7,0.7-2.5,1.1c-3.3,1.5-6.6,2.8-10.6,5c-2.1,1-4.2,2.4-6.8,3.9
						c-1.3,0.7-2.6,1.7-4.1,2.5c-1.5,0.9-3,1.9-4.7,2.9c2.7-2.2,5.3-4.3,7.8-6.6c-0.8,0.6-1.8,1.2-2.8,1.8c-1,0.6-2.2,1.2-3.4,1.9
						c-1.2,0.7-2.5,1.4-3.9,2c-1.4,0.6-2.8,1.3-4.3,2c-6,2.5-12.9,4.8-19.8,6.4c-7,1.6-14,2.5-20.3,3c-1.6,0.1-3.1,0.1-4.6,0.3
						c-0.7,0.1-1.5,0.1-2.2,0.2c-0.7,0-1.4,0-2.1,0.1c-1.4,0.1-2.7,0.2-3.9,0.3c-1.2,0.1-2.4,0.2-3.4,0.4c-2.7-1.4-5.7-4.1,1.1-3.2
						c-9.1-2.1-18.8-5.1-28.5-9.4c-9.7-4.2-19.5-9.5-29-15.3c-9.4-5.8-18.4-12.1-26.7-18.4c-8.2-6.3-15.7-12.5-22-18.4l3.7,0.6
						c-6.9-4.6-13.4-6.1-20.9-13.6c0.9-0.3,3.8,0.5,0.7-1.8c-2-1-7.1-3.6-12.9-6.6c-1.4-0.8-2.9-1.5-4.5-2.3c-1.5-0.8-3-1.6-4.5-2.4
						c-1.5-0.8-3-1.6-4.3-2.4c-1.4-0.8-2.7-1.6-3.9-2.4c1.6,0.4,3.2,0.9,4.8,1.4l4.8,1.5c-7.8-5.1-15.5-8.9-22.9-11.9
						c-1.9-0.7-3.7-1.4-5.6-2c-1.8-0.6-3.7-1.1-5.5-1.6c-0.9-0.3-1.8-0.5-2.7-0.7c-0.9-0.2-1.8-0.4-2.7-0.6
						c-1.8-0.4-3.6-0.7-5.3-1.1l-9.6,26c10,3.9,19.9,5.9,29.9,6.8c10,0.9,20.1,0.7,31.1,0c0,0.7,0.6,1.3,1.6,1.8
						c1,0.5,2.5,0.9,4.3,1.3c3.6,0.7,8.7,1,14.3,0.9c5.6-0.1,11.6-0.6,17.3-1.3c5.7-0.7,11.1-1.6,15.3-2.4l-0.4,0.9
						c6.3-1.4,12.2-2.9,17.8-4.5c2.8-0.8,5.6-1.6,8.3-2.4c2.7-0.8,5.4-1.6,8.1-2.5c5.4-1.8,11-3.8,16.5-6.3c2.8-1.3,5.5-2.7,8.3-4.3
						c2.7-1.6,5.4-3.4,8-5.4c2.6-2,5.1-4.2,7.3-6.5c2.3-2.3,4.2-4.8,6.1-7.2c1.8-2.5,3.5-5,5-7.5c1.5-2.5,2.9-5.1,4.2-7.6
						c2.6-5.1,4.8-10.1,7-15c2.3-4.9,4.6-9.8,7.1-14.9c1.2-1.4,2.4-2.9,3.6-4.5c1.3-1.6,2.6-3.4,3.9-5.2c2.7-3.7,5.6-7.9,8.5-12.5
						c6.2-9,12.7-19.5,20-30.2c14.3-21.5,30.5-44.4,45.2-61.5c-4.9,4.9-2.6-3.3,1.8-10.1c1.8-2,3.6-4.5,5.4-7.2
						c1.8-2.7,3.6-5.5,5.1-7.9c3.2-4.9,5.8-8.2,7.2-6.1l-2.4,2.9c2.2-0.9,4.5-2.6,7.1-5c2.6-2.4,5.3-5.3,8.1-8.6
						c5.5-6.6,11.5-14.3,16.9-20.8l-3.1-6.2c6.4-5.2,12.9-11.5,19.3-18.5c1.6-1.7,3.2-3.5,4.8-5.3c2.7-3.1,5.3-6.2,8-9.4
						c5.5-6.4,11-12.9,16.4-19.4c10.8-13,21-25.6,30.5-37.1c9.5-11.6,18.1-22.2,26.8-32.3l-0.3,0.1l-0.4,0.2l-0.9,0.4
						c-0.6,0.2-1.2,0.5-1.7,0.7c-1.1,0.4-2.3,0.9-3.4,1.3c-2.2,0.8-4.3,1.6-6.3,2.4c-4,1.5-7.7,2.8-11,3.9c-6.6,2.2-11.6,3.4-15,3.5
						c-10.5,5.1-20.7,9.6-30.6,14c-9.9,4.4-19.6,8.7-27.9,12.9c0.6-1.5,1.3-3,2-4.5c-6.2,2.4-12.1,4.6-17.7,6.8
						c-2.6,1-5.1,2-7.6,2.9c-1.5,0.6-3,1.1-4.4,1.7c-5.8,2.2-11.3,4.3-16.9,6.5c-11.3,4.4-23.3,9.4-40.4,16.7l6.1-5.1
						c-19.5,7.6-20.8,19-38.7,26.4l-7.3-2.5c-16.9,6.9-34.4,12.7-51.5,19.1c-17.2,6.4-34.2,13.2-50.1,22.5c0.3-0.9,0.7-2.7,6.1-5.2
						c-8,3.3-23.9,9.1-36.6,15.1c-3.2,1.5-6.1,3-8.7,4.4c-2.6,1.4-4.8,2.8-6.5,4c-3.4,2.4-4.6,4.3-2.4,5.1
						c-1.2-1.9-9.9,2.3-20.2,8.9c-2.6,1.7-5.2,3.5-7.9,5.3c-2.7,1.8-5.3,3.9-7.9,5.8c-2.6,1.9-5.1,3.9-7.4,5.8
						c-1.2,0.9-2.3,1.9-3.4,2.7c-1.1,0.9-2.1,1.8-3.1,2.6l0.7-4.6c-3.5,4-6,6.9-8.2,9.5c-2.2,2.6-4.1,4.8-6.7,7.4l10.3,14.1
						c3.1-2.9,7.4-6.6,14.8-12.3c4.8-2.8,5.5-0.6-1,2.9c8.1-4.6,10.5-7.3,13.4-10.3c2.9-3,6.1-6.3,15.7-12.1l-5.5,6.6
						c15.5-11,13.6-11,20.5-19.2c8.8-8.1,29.2-20.9,33.3-20.3c0.9-3.1,7.6-11.3,16.9-17.5c1.9,0-0.9,3-2.3,4.6
						c6.6-4.5,12-8.7,16.8-12.8c4.7-4.1,8.8-8,12.6-11.6c3.8-3.6,7.4-7.1,11.2-10.4c3.8-3.3,7.9-6.3,12.5-9.2
						c1.1,0.6,2.5,0.1,4.1-0.8c-2.4,2-4.8,4-7.1,5.9c-2.3,1.9-4.5,3.7-6.6,5.4c-4.2,3.4-7.9,6.5-11.1,9c-6.3,5-9.9,7.8-9.2,7.1
						c1.9,2.4,18.1-10,8.2,3.5c5.7-6,13-14.6,21-22.9c7.9-8.5,16.5-16.8,24.5-22.8c0.9-0.4,1.8-0.8,2.7-0.9l-1.3,1.6
						c3.7-2.8,6.6-5.6,9.2-8.6c5.1-3.8,8.4-6.2,13-10.2c0.9,0.1,2.5-0.8,4.5-2.2c1-0.7,2.1-1.6,3.3-2.6c0.4-0.3,0.8-0.6,1.1-1
						c0.5-0.5,1.1-0.9,1.6-1.4c1.1-1,2.2-1.9,3.3-3c4.6-4,9.2-8.4,13.6-12.5c4.3-4.1,8.3-7.9,11.6-10.9c-1.6,0.3-1.6-0.4-1.3-1.4
						c0.4-1,1.2-2.2,1.7-3.1c0.4-0.8,0.4-1.2-0.8-0.6c-1.3,0.6-3.8,2.3-8.2,5.5c2.1-1.6-1.4,1.9-8.6,8.7c-1.5,1.6-3.5,3.4-4.4,4.5
						c0.1-0.2,0.3-0.5,0.5-0.8c-3.6,3.4-7.9,7.3-12.7,11.6c-3.2,2.9-6.6,6-10.3,9.3c2.5-3.3,5-6.6,8.1-9.9c0.6-0.7,2-2,3.2-3.1
						c1.2-1.1,2.5-2.3,3.9-3.4c2.7-2.3,5.7-4.7,9.3-7.3c1.5-2.8,2.7-5.5,3.6-7.7c0.9-2.2,1.6-3.9,2.1-5c5-3,10.9-7,17.2-11.7
						c6.3-4.7,13.1-9.9,19.8-15.1c13.3-10.5,26.5-21.1,33.4-25.7c2-2,4-4.1,6-6.2l0.4-0.4l0.2-0.2l0.1-0.1c0,0-0.1,0-0.1,0l-1.3,0.4
						c-0.9,0.2-1.7,0.5-2.6,0.7c-1.7,0.5-3.5,1-5.2,1.5c-6.8,1.9-13.9,3.9-20.9,5.9c-6.9,1.9-13.8,3.9-20.7,5.8
						c-3.4,1-6.8,1.9-10.2,2.9l-2.5,0.7c-0.9,0.3-1.7,0.5-2.6,0.8c-1.7,0.5-3.4,1-5.1,1.5c-13.5,4.1-26.2,8.1-36.8,11.8
						c-5.3,1.9-10.1,3.7-14.1,5.4c-0.5,0.2-1,0.4-1.5,0.6c-0.3,0.2-0.7,0.3-1,0.5c-0.7,0.3-1.3,0.7-1.9,1c-1.2,0.7-2.4,1.4-3.5,2.1
						c-8.3,3.1-10.2,0.9-13.6,0.7c4.7-1.9,10.6-3.4,13-5c-16.5,6.1-50,14.1-52.9,19.4c-21.9,3.8,10.9-7.2-18.2,1.4l3.6-2.4
						c-59.6,8.6-90.9,36.1-157.3,44.4c4.6-0.6,6.9-1,8-0.5c-28.1,6-56.5,13.7-84.8,21.8c-7.1,2-14.2,4.1-21.3,6.1l-10.7,3.1
						c-3.6,1.1-7.3,2.2-10.9,3.5c-7.2,2.6-14.5,5.8-21.3,10.4c-3.3,2.4-6.6,5.1-9.4,8.3c-2.8,3.2-5.2,6.9-6.9,10.9l-6.8,15l15.3-6.7
						c2.1-0.9,4.3-1.9,6.4-2.8l3.2-1.4l3.2-1.5c2.1-1,4.2-2,6.3-3c2.1-1,4.2-2.1,6.2-3.1c1-0.5,2.1-1,3.1-1.5l3.1-1.6
						c2.1-1.1,4.1-2.1,6.2-3.2c2-1.1,4.1-2.2,6.1-3.3c1-0.6,2-1.1,3-1.7l3-1.7c2.3-1.4,4.4-2.7,6.2-3.9c1.8-1.3,3.3-2.4,4.7-3.5
						c2.8-2.1,4.7-4.1,6.4-6c3.4-3.7,5.6-7.2,9.9-12.3c2-0.1,3.9-0.3,5.9-0.4l3.5-4.6l3.4-4.7c1.1-1.6,2.2-3.1,3.3-4.7l3.2-4.8
						c0.6-0.8,1.3-1.6,1.9-2.4l0.5-0.6l0.5-0.7c0.4-0.4,0.7-0.9,1.1-1.3c1.5-1.8,3-3.5,4.5-5.1c1.5-1.6,3-3.4,4.5-5.1
						c1.5-1.7,3.1-3.4,4.7-5.2c3.4-3.7,6.7-7.4,10-11.1c1.8-2,3.6-4.1,5.4-6.2c0.9-1.1,1.9-2.2,2.8-3.2l1.4-1.7l0.4-0.4
						c0.1-0.1,0.1-0.1,0.2-0.2l0-0.1l0-0.5c-8-1.5-17.7-2.9-29.3-3.9c-5.8-0.5-11.9-0.8-18.2-0.9c-0.8,0-1.6,0-2.4,0l-1.2,0l-0.9,0
						c-1.1,0-2.3,0.1-3.4,0.1c-2.3,0.1-4.7,0.3-7.1,0.5l5,2.7c-7.1-0.6-18.5-0.7-27.7-0.9c-9.2-0.3-16.4-0.6-15.1-2
						c-1.5,0.4-4.7,2.4-10.3,1l-0.4-1.9c-11.7,0.8-23.5,1.8-35.2,2.9c-13.6-0.7-12.6-2.5-13.1-4.3c-0.5-1.7-2.6-3.4-22.5-3.3
						c-7.4,0.5-17.9,2.1-25.8,3.9c-7.9,1.7-13.3,3.4-10.5,4c6-0.1,15.3,0.7,15.8,2.6c-4.5,0.4-9,1-13.4,1.4
						c-1.1,2.8-4.2,5.8-2.9,8.3c0.7,1.3,2.4,2.5,6.1,3.5c3.7,1,9.2,1.9,17.4,2.7c7.6-1.3,15.2-2.6,22.8-3.9l7.4,2.6
						c-6.4,0.1-12.8,0.3-19.2,0.5c11,2.3,17.8,0,25.6-1.6c1.8,1.4,5.1,2.4,9.6,3c7.5-1.8,15-3.5,22.5-5.2c2.7,2.2-10.1,4.2,4.9,5.6
						c10.6-2.3-10-5,7.4-6.4c10.9,2.8,7.7,4.7,20.6,2.9c1.8,1.5-1,2.3-6.1,2.8c11.5-1.5,30.2,0.3,36.3-2.4c2.8,0.9,6.6,1.4,10.8,1.8
						c0.5,0.1,1,0.1,1.5,0.2c0.4,0,0.9,0.1,1.3,0.1c0.9,0.1,1.7,0.1,2.5,0.2c1.5,0.1,2.8,0.3,3.2,0.8c0.4,0.4-0.2,1.2-2.1,2.4
						c1.1-0.5,3.4-1.2,6.8-1.8l0.4-0.1l0.2,0c0,0,0,0,0,0c0,0.1,0.1,0.1,0.1,0.2c0.1,0.1,0.1,0.3,0.2,0.4c0.1,0.3,0.1,0.7,0,1.2
						c-0.2,0.9-0.7,2-1.4,3c-0.5-0.7-1.1-0.9-1.8-0.9c-0.6,0.1-1.3,0.3-1.8,0.7c-1.1,0.7-2.1,1.8-3.2,3c-0.8,0.8-1.5,1.6-2.3,2.3
						c-0.9,0.8-1.7,1.6-2.5,2.3c-0.9,0.8-1.8,1.6-2.6,2.3s-1.6,1.3-2.3,1.7c-0.7,0.5-1.4,0.8-1.9,1c-1.1,0.4-1.8,0.1-1.9-0.9
						c-2.7,6.8-11.4,15.6-21.9,24.3c-10.5,8.7-23,16.9-32.7,24.3c0.9-1.1,2.8-3.2,4.7-4.1c-3,1.6-5.5,2.9-7.7,3.9
						c-2.2,0.9-4.2,1.7-6,2.3c-1.8,0.7-3.5,1.1-5.2,1.6c-1.8,0.5-3.6,1.1-5.6,1.8c0.2,2-2.8,4.8-7.1,8l16.4,16.1
						c0.3-2.6,1.4-5.6,3.2-8.5c1.8-2.9,4.4-5.6,6.6-7.9c1-0.2,1.8-0.4,2.5-0.5c0.7-0.1,1.3-0.1,1.8-0.1c0.9,0.1,1.4,0.3,1.5,0.7
						c0.3,0.8-0.7,2-1.9,3.4c-0.5,0.7-1.2,1.4-1.7,2.2c-0.5,0.7-0.9,1.4-1.2,2.1c-0.4,1.3-0.2,2.3,1.1,2.6c-0.3-0.3-0.4-0.8-0.2-1.4
						c0.2-0.6,0.7-1.3,1.4-2.1c1.4-1.5,3.7-3.3,6.2-4.9c5-3.2,10.5-5.6,7.4-6.3c3.2-0.3,5.4-0.5,7.2-0.7c1.7-0.2,2.9-0.3,4-0.3
						c2-0.1,3.4,0.2,7.3,1.2c0.7-6.3,11.8-4.2,21.5-10.5c19.4-2.2,6.2,4,26.3-3.2C453,215.4,435.3,222.3,435.3,222.3z M702.5,180.8
						C702.5,180.8,702.5,180.7,702.5,180.8c3.2-2.9,5.9-5.4,7.7-7C708.6,175.3,706.4,177.3,702.5,180.8z M670.2,208
						c4-3.2,9-7.2,14.2-11.6c1.9-0.1,1.4,1.9-1.9,4.6C683.8,198.9,675.7,204.8,670.2,208z M755.3,165.7c-1.1,1-2,1.9-2.9,2.8
						c-0.7,0.6-1.3,1.2-1.8,1.7c-0.9,0.8-1.6,1.4-2.3,1.8c-1.3,0.9-2.1,1.2-2.7,1.2c3-2.8,6.4-6.1,11-10.4c0.1-0.3,0.5-0.8,0.6-1.1
						C757,162.7,756.6,163.9,755.3,165.7z"/>
					<path class="st7" d="M765.3,150.6c1-1,1.4-1.6,2.7-2.8c-1.9,1.3-3.6,2.6-5.3,3.8c-0.5,0.9-1,1.9-1.4,2.7
						C762.7,153,764.1,151.8,765.3,150.6z"/>
					<path class="st7" d="M831.7,764.1l0.9,0c-0.8,0-1.4-0.1-1.9-0.2C831.3,763.9,831.3,764,831.7,764.1z"/>
					<polygon class="st7" points="865.9,188.4 867.9,186.7 865.4,188.5 					"/>
					<path class="st7" d="M733.7,817.1c0.3,0.5,0.9,1.1,2.4,2.1C736.1,819,735,818.1,733.7,817.1z"/>
					<path class="st7" d="M823.6,863l12.2,7.5C830.6,867.2,826.8,864.8,823.6,863z"/>
					<path class="st7" d="M892,899.9c1.1-0.1,1.6-0.3,2-0.6c-0.1,0-0.1-0.1-0.1-0.1L892,899.9z"/>
					<path class="st7" d="M825.8,707.9c-1,0.1-2.1,0.2-3,0.3C815.8,709.1,820.6,708.7,825.8,707.9z"/>
					<path class="st7" d="M1191.7,707.7c-3.9,0.2-7.8,0.4-11.9,0.3C1186.2,709,1191.3,709.6,1191.7,707.7z"/>
					<path class="st7" d="M686.4,625C686.4,625.1,686.4,625.1,686.4,625c0.7-0.5,1.3-1,1.9-1.5L686.4,625z"/>
					<path class="st7" d="M1162.9,706.2c3.2,0.6,6.2,1.1,9,1.4c2.8,0.3,5.4,0.4,8,0.5c-2.6-0.4-5.5-0.9-8.4-1.2
						C1168.5,706.5,1165.6,706.2,1162.9,706.2z"/>
					<path class="st7" d="M1187.7,1059.9l3.2,1.9c0.1-0.2,0.3-0.3,0.7-0.3L1187.7,1059.9z"/>
					<path class="st7" d="M1191.6,1061.6l3.8,1.7C1193.7,1062.3,1192.3,1061.6,1191.6,1061.6z"/>
					<path class="st7" d="M1203.4,1066.8l-8.1-3.5C1198,1064.7,1201.2,1066.7,1203.4,1066.8z"/>
					<path class="st7" d="M1098.4,1009.1l-1.6,0.5C1097.5,1009.7,1098,1009.6,1098.4,1009.1z"/>
					<path class="st7" d="M1070.8,994.6c6.4,3.8,15.2,11.2,24.7,15.4l1.3-0.4C1091.6,1008.9,1078,996.1,1070.8,994.6z"/>
					<path class="st7" d="M962.8,920l22.7,13.1c-3.4-3.3-8-7.6,2.7-2.4C960.8,911.9,992.9,936.5,962.8,920z"/>
					<path class="st7" d="M891.6,880.9c12.8,5.9,0.7-1.8,1.7-2.1C884.8,875.8,882.8,875.1,891.6,880.9z"/>
					<path class="st7" d="M1013.8,744.1l-1,3.2C1023.4,745.5,1012.7,746.1,1013.8,744.1z"/>
					<polygon class="st7" points="1123.1,714.4 1112.4,713.8 1107.7,717.2 					"/>
					<polygon class="st7" points="1191.5,727.9 1186.9,728.9 1204.7,725.6 					"/>
					<path class="st7" d="M792.3,573.2l-5-0.7C782.3,577.9,783.9,582.2,792.3,573.2z"/>
					<path class="st7" d="M1083.5,258.9c1.5-2.4,3.2-7.1,3.6-12.8c0.4-5.6-0.9-12-3.4-16.1l0.6,2.2c0.2,0.7,0.3,1.5,0.5,2.2
						c0.3,1.5,0.5,2.9,0.6,4.4c0.2,2.9,0.2,5.7-0.1,8.2C1084.9,252.1,1083.8,256.1,1083.5,258.9z"/>
					<path class="st7" d="M874.7,228.3l-4.4,7.4c3.1-4.3,6.2-8.7,9.4-13L874.7,228.3z"/>
				</g>
			</g>
		</g>
	</g>
</g>
<rect x="551.2" y="482.1" class="st0" width="608.8" height="123.9"/>
<text transform="matrix(1 0 0 1 551.1582 545.4878)"><tspan x="0" y="0" class="st8 st2 st3">In</tspan><tspan x="100.3" y="0" class="st9 st2 st3">side </tspan><tspan x="333.3" y="0" class="st10 st2 st3">Out</tspan></text>
<rect x="1399.9" y="461.1" class="st0" width="0" height="2.8"/>
</svg>
